<svg width="24" height="24" viewBox="0 0 24 24" fill="none" xmlns="http://www.w3.org/2000/svg">
<mask id="mask0_197_2041" style="mask-type:alpha" maskUnits="userSpaceOnUse" x="0" y="0" width="24" height="24">
<rect width="24" height="24" fill="#D9D9D9"/>
</mask>
<g mask="url(#mask0_197_2041)">
<path d="M9.5502 14.3L17.5752 6.27505C17.8919 5.95838 18.2669 5.80005 18.7002 5.80005C19.1335 5.80005 19.5085 5.95838 19.8252 6.27505C20.1419 6.59172 20.3002 6.96672 20.3002 7.40005C20.3002 7.83338 20.1419 8.20838 19.8252 8.52505L10.6752 17.675C10.3585 17.9917 9.98353 18.15 9.5502 18.15C9.11686 18.15 8.74186 17.9917 8.4252 17.675L4.1752 13.425C3.85853 13.1084 3.7002 12.7334 3.7002 12.3C3.7002 11.8667 3.85853 11.4917 4.1752 11.175C4.49186 10.8584 4.86686 10.7 5.3002 10.7C5.73353 10.7 6.10853 10.8584 6.4252 11.175L9.5502 14.3Z" fill="#0080D8"/>
</g>
</svg>
