<svg width="18" height="24" viewBox="0 0 18 24" fill="none" xmlns="http://www.w3.org/2000/svg">
<mask id="mask0_133_1517" style="mask-type:alpha" maskUnits="userSpaceOnUse" x="-3" y="0" width="24" height="24">
<rect x="-3" width="24" height="24" fill="#D9D9D9"/>
</mask>
<g mask="url(#mask0_133_1517)">
<path d="M9.00002 7.1252V14.9252L12.15 16.8502L11.325 13.2502L14.1 10.8502L10.45 10.5252L9.00002 7.1252ZM9.00002 17.2752L4.85002 19.7752C4.66668 19.8919 4.47501 19.9419 4.27501 19.9252C4.07501 19.9085 3.90002 19.8419 3.75002 19.7252C3.60001 19.6085 3.48335 19.4627 3.40002 19.2877C3.31668 19.1127 3.30002 18.9169 3.35002 18.7002L4.45002 13.9752L0.775015 10.8002C0.608348 10.6502 0.504182 10.4794 0.462515 10.2877C0.420848 10.096 0.433348 9.90853 0.500015 9.72519C0.566682 9.54186 0.666682 9.39186 0.800015 9.2752C0.933348 9.15853 1.11668 9.08353 1.35002 9.0502L6.20002 8.6252L8.07502 4.1752C8.15835 3.9752 8.28752 3.8252 8.46252 3.7252C8.63752 3.6252 8.81668 3.5752 9.00002 3.5752C9.18335 3.5752 9.36252 3.6252 9.53752 3.7252C9.71252 3.8252 9.84168 3.9752 9.92502 4.1752L11.8 8.6252L16.65 9.0502C16.8833 9.08353 17.0667 9.15853 17.2 9.2752C17.3333 9.39186 17.4333 9.54186 17.5 9.72519C17.5667 9.90853 17.5792 10.096 17.5375 10.2877C17.4958 10.4794 17.3917 10.6502 17.225 10.8002L13.55 13.9752L14.65 18.7002C14.7 18.9169 14.6833 19.1127 14.6 19.2877C14.5167 19.4627 14.4 19.6085 14.25 19.7252C14.1 19.8419 13.925 19.9085 13.725 19.9252C13.525 19.9419 13.3333 19.8919 13.15 19.7752L9.00002 17.2752Z" fill="#FFBF00"/>
</g>
</svg>
