<svg width="208" height="112" viewBox="0 0 208 112" fill="none" xmlns="http://www.w3.org/2000/svg">
<path d="M140.772 63.2159C140.016 63.2159 139.356 63.0899 138.792 62.8379C138.24 62.5859 137.796 62.2379 137.46 61.7939C137.136 61.3379 136.938 60.8039 136.866 60.1919H138.414C138.474 60.5039 138.6 60.7919 138.792 61.0559C138.984 61.3199 139.242 61.5359 139.566 61.7039C139.902 61.8599 140.31 61.9379 140.79 61.9379C141.21 61.9379 141.558 61.8779 141.834 61.7579C142.11 61.6259 142.314 61.4519 142.446 61.2359C142.59 61.0199 142.662 60.7859 142.662 60.5339C142.662 60.1619 142.572 59.8799 142.392 59.6879C142.224 59.4959 141.972 59.3459 141.636 59.2379C141.3 59.1179 140.892 59.0159 140.412 58.9319C140.016 58.8599 139.626 58.7639 139.242 58.6439C138.858 58.5239 138.516 58.3679 138.216 58.1759C137.916 57.9719 137.676 57.7259 137.496 57.4379C137.328 57.1499 137.244 56.7959 137.244 56.3759C137.244 55.8599 137.376 55.4039 137.64 55.0079C137.904 54.5999 138.282 54.2819 138.774 54.0539C139.278 53.8259 139.86 53.7119 140.52 53.7119C141.492 53.7119 142.278 53.9459 142.878 54.4139C143.478 54.8819 143.832 55.5599 143.94 56.4479H142.446C142.386 55.9919 142.188 55.6379 141.852 55.3859C141.528 55.1219 141.078 54.9899 140.502 54.9899C139.938 54.9899 139.506 55.1039 139.206 55.3319C138.918 55.5599 138.774 55.8599 138.774 56.2319C138.774 56.4719 138.852 56.6879 139.008 56.8799C139.176 57.0599 139.416 57.2159 139.728 57.3479C140.052 57.4799 140.448 57.5879 140.916 57.6719C141.516 57.7799 142.062 57.9239 142.554 58.1039C143.046 58.2839 143.442 58.5539 143.742 58.9139C144.054 59.2619 144.21 59.7599 144.21 60.4079C144.21 60.9719 144.066 61.4639 143.778 61.8839C143.502 62.3039 143.106 62.6339 142.59 62.8739C142.074 63.1019 141.468 63.2159 140.772 63.2159Z" fill="#191919"/>
<path d="M130.062 63.216C129.186 63.216 128.418 63.012 127.758 62.604C127.098 62.184 126.588 61.614 126.228 60.894C125.868 60.174 125.688 59.358 125.688 58.446C125.688 57.534 125.868 56.724 126.228 56.016C126.588 55.296 127.098 54.732 127.758 54.324C128.43 53.916 129.204 53.712 130.08 53.712C130.824 53.712 131.472 53.862 132.024 54.162C132.588 54.462 133.02 54.882 133.32 55.422V50.04H134.832V63H133.464L133.338 61.506C133.146 61.806 132.9 62.088 132.6 62.352C132.3 62.604 131.94 62.814 131.52 62.982C131.1 63.138 130.614 63.216 130.062 63.216ZM130.242 61.902C130.842 61.902 131.37 61.758 131.826 61.47C132.282 61.182 132.636 60.786 132.888 60.282C133.14 59.766 133.266 59.16 133.266 58.464C133.266 57.78 133.14 57.18 132.888 56.664C132.636 56.148 132.282 55.746 131.826 55.458C131.37 55.17 130.842 55.026 130.242 55.026C129.654 55.026 129.132 55.17 128.676 55.458C128.22 55.746 127.866 56.148 127.614 56.664C127.362 57.18 127.236 57.78 127.236 58.464C127.236 59.16 127.362 59.766 127.614 60.282C127.866 60.786 128.22 61.182 128.676 61.47C129.132 61.758 129.654 61.902 130.242 61.902Z" fill="#191919"/>
<path d="M115.731 62.9999V53.9279H117.099L117.171 55.5119C117.459 54.9479 117.867 54.5099 118.395 54.1979C118.935 53.8739 119.547 53.7119 120.231 53.7119C120.939 53.7119 121.551 53.8559 122.067 54.1439C122.583 54.4199 122.985 54.8459 123.273 55.4219C123.561 55.9859 123.705 56.7059 123.705 57.5819V62.9999H122.193V57.7439C122.193 56.8319 121.989 56.1479 121.581 55.6919C121.185 55.2359 120.621 55.0079 119.889 55.0079C119.385 55.0079 118.935 55.1339 118.539 55.3859C118.143 55.6259 117.825 55.9799 117.585 56.4479C117.357 56.9039 117.243 57.4739 117.243 58.1579V62.9999H115.731Z" fill="#191919"/>
<path d="M108.892 63.2159C108.16 63.2159 107.548 63.0899 107.056 62.8379C106.564 62.5739 106.198 62.2319 105.958 61.8119C105.718 61.3799 105.598 60.9119 105.598 60.4079C105.598 59.7959 105.754 59.2799 106.066 58.8599C106.39 58.4279 106.84 58.1039 107.416 57.8879C108.004 57.6599 108.694 57.5459 109.486 57.5459H111.88C111.88 56.9819 111.79 56.5139 111.61 56.1419C111.442 55.7579 111.19 55.4699 110.854 55.2779C110.53 55.0859 110.122 54.9899 109.63 54.9899C109.054 54.9899 108.556 55.1339 108.136 55.4219C107.716 55.7099 107.458 56.1359 107.362 56.6999H105.814C105.886 56.0519 106.102 55.5119 106.462 55.0799C106.834 54.6359 107.302 54.2999 107.866 54.0719C108.43 53.8319 109.018 53.7119 109.63 53.7119C110.47 53.7119 111.166 53.8679 111.718 54.1799C112.282 54.4799 112.702 54.9059 112.978 55.4579C113.254 55.9979 113.392 56.6399 113.392 57.3839V62.9999H112.042L111.952 61.3979C111.832 61.6499 111.676 61.8899 111.484 62.1179C111.304 62.3339 111.088 62.5259 110.836 62.6939C110.584 62.8499 110.296 62.9759 109.972 63.0719C109.66 63.1679 109.3 63.2159 108.892 63.2159ZM109.126 61.9379C109.546 61.9379 109.924 61.8539 110.26 61.6859C110.608 61.5059 110.902 61.2659 111.142 60.9659C111.382 60.6539 111.562 60.3119 111.682 59.9399C111.814 59.5679 111.88 59.1779 111.88 58.7699V58.7159H109.612C109.024 58.7159 108.55 58.7879 108.19 58.9319C107.83 59.0639 107.572 59.2559 107.416 59.5079C107.26 59.7479 107.182 60.0239 107.182 60.3359C107.182 60.6599 107.254 60.9419 107.398 61.1819C107.554 61.4219 107.776 61.6079 108.064 61.7399C108.364 61.8719 108.718 61.9379 109.126 61.9379Z" fill="#191919"/>
<path d="M99.2778 62.9999V53.9279H100.646L100.754 55.6559C100.958 55.2479 101.216 54.8999 101.528 54.6119C101.852 54.3239 102.236 54.1019 102.68 53.9459C103.136 53.7899 103.652 53.7119 104.228 53.7119V55.2959H103.67C103.286 55.2959 102.92 55.3499 102.572 55.4579C102.224 55.5539 101.912 55.7159 101.636 55.9439C101.372 56.1719 101.162 56.4839 101.006 56.8799C100.862 57.2639 100.79 57.7439 100.79 58.3199V62.9999H99.2778Z" fill="#191919"/>
<path d="M92.7623 63.216C92.2463 63.216 91.7783 63.144 91.3583 63C90.9503 62.844 90.5903 62.64 90.2783 62.388C89.9663 62.136 89.7083 61.842 89.5043 61.506L89.3783 63H88.0103V50.04H89.5223V55.422C89.8103 54.954 90.2243 54.552 90.7643 54.216C91.3043 53.88 91.9703 53.712 92.7623 53.712C93.6383 53.712 94.4063 53.922 95.0663 54.342C95.7263 54.75 96.2363 55.314 96.5963 56.034C96.9683 56.742 97.1543 57.552 97.1543 58.464C97.1543 59.376 96.9683 60.192 96.5963 60.912C96.2363 61.632 95.7263 62.196 95.0663 62.604C94.4063 63.012 93.6383 63.216 92.7623 63.216ZM92.5823 61.902C93.1703 61.902 93.6923 61.758 94.1483 61.47C94.6043 61.182 94.9583 60.786 95.2103 60.282C95.4743 59.766 95.6063 59.16 95.6063 58.464C95.6063 57.78 95.4743 57.18 95.2103 56.664C94.9583 56.148 94.6043 55.746 94.1483 55.458C93.6923 55.17 93.1703 55.026 92.5823 55.026C91.9823 55.026 91.4543 55.17 90.9983 55.458C90.5423 55.746 90.1883 56.148 89.9363 56.664C89.6843 57.18 89.5583 57.78 89.5583 58.464C89.5583 59.16 89.6843 59.766 89.9363 60.282C90.1883 60.786 90.5423 61.182 90.9983 61.47C91.4543 61.758 91.9823 61.902 92.5823 61.902Z" fill="#191919"/>
<path d="M79.2212 63V50.04H80.7332V63H79.2212Z" fill="#191919"/>
<path d="M75.2134 63V50.04H76.7254V63H75.2134Z" fill="#191919"/>
<path d="M62.54 63.0001L67.184 50.4001H68.786L73.412 63.0001H71.81L67.976 52.2901L64.124 63.0001H62.54ZM64.664 59.7601L65.096 58.5361H70.802L71.234 59.7601H64.664Z" fill="#191919"/>
</svg>
