<svg width="208" height="112" viewBox="0 0 208 112" fill="none" xmlns="http://www.w3.org/2000/svg">
<path d="M68.6004 54.1663C68.5455 48.4113 73.302 45.6463 73.516 45.5146C70.8387 41.603 66.6802 41.0653 65.1989 41.005C61.6604 40.6429 58.2918 43.0897 56.4924 43.0897C54.6929 43.0897 51.9224 41.0544 48.9873 41.1147C45.125 41.1696 41.5645 43.3586 39.573 46.8148C35.5681 53.7603 38.5526 64.0743 42.4642 69.7196C44.3789 72.4791 46.6502 75.5898 49.6456 75.4746C52.5314 75.3594 53.6176 73.6093 57.0959 73.6093C60.5741 73.6093 61.5561 75.4746 64.6009 75.4197C67.7006 75.3594 69.6647 72.5998 71.5629 69.8293C73.7464 66.6199 74.6516 63.5202 74.7065 63.3556C74.6351 63.3282 68.6662 61.0405 68.6004 54.1663Z" fill="#191919"/>
<path d="M62.8786 37.2637C64.4696 35.338 65.5394 32.6663 65.2486 30C62.9609 30.0933 60.1904 31.5252 58.55 33.4508C57.0797 35.1515 55.7905 37.8727 56.1416 40.4841C58.6817 40.6816 61.2931 39.1838 62.8786 37.2637ZM88.6636 59.8228L86.0302 67.8052H82.6453L91.264 42.4371H95.2141L103.866 67.8052H100.366L97.6554 59.8228H88.6636ZM96.9806 57.2608L94.5009 49.9587C93.9358 48.3019 93.5627 46.7987 93.1842 45.3284H93.1129C92.7343 46.8316 92.3229 48.3732 91.8346 49.9203L89.3549 57.2553L96.9806 57.2608ZM106.433 55.5326C106.433 53.201 106.362 51.3138 106.28 49.5856H109.253L109.407 52.7127H109.478C110.833 50.4908 112.978 49.1742 115.952 49.1742C120.357 49.1742 123.665 52.8993 123.665 58.4348C123.665 64.9853 119.677 68.2167 115.387 68.2167C112.978 68.2167 110.872 67.1633 109.78 65.3584H109.709V75.2554H106.433V55.5326ZM109.703 60.3879C109.703 60.8817 109.774 61.326 109.857 61.743C110.46 64.0362 112.452 65.6217 114.827 65.6217C118.327 65.6217 120.363 62.7634 120.363 58.5829C120.363 54.9292 118.443 51.813 114.942 51.813C112.688 51.813 110.581 53.4314 109.933 55.9167C109.818 56.3281 109.709 56.8219 109.709 57.2718L109.703 60.3879ZM127.089 55.5326C127.089 53.201 127.017 51.3138 126.935 49.5856H129.909L130.062 52.7127H130.134C131.489 50.4908 133.634 49.1742 136.607 49.1742C141.013 49.1742 144.321 52.8993 144.321 58.4348C144.321 64.9853 140.332 68.2167 136.042 68.2167C133.634 68.2167 131.527 67.1633 130.435 65.3584H130.364V75.2554H127.089V55.5326ZM130.364 60.3879C130.364 60.8817 130.435 61.326 130.518 61.743C131.121 64.0362 133.113 65.6217 135.488 65.6217C138.988 65.6217 141.024 62.7634 141.024 58.5829C141.024 54.9292 139.103 51.813 135.603 51.813C133.348 51.813 131.242 53.4314 130.594 55.9167C130.479 56.3281 130.369 56.8219 130.369 57.2718L130.364 60.3879ZM147.75 41.0821H151.063V67.7997H147.75V41.0821ZM157.724 59.2961C157.795 63.7729 160.659 65.6217 163.967 65.6217C166.337 65.6217 167.769 65.2102 169.009 64.6836L169.574 67.0536C168.411 67.5803 166.414 68.1837 163.517 68.1837C157.91 68.1837 154.558 64.497 154.558 58.9999C154.558 53.5028 157.795 49.1742 163.1 49.1742C169.047 49.1742 170.627 54.4025 170.627 57.7545C170.627 58.4348 170.556 58.956 170.512 59.2961H157.724ZM167.434 56.9261C167.472 54.8194 166.567 51.5442 162.842 51.5442C159.49 51.5442 158.025 54.6329 157.762 56.9261H167.434Z" fill="#191919"/>
</svg>
