<svg width="208" height="112" viewBox="0 0 208 112" fill="none" xmlns="http://www.w3.org/2000/svg">
<path d="M139.602 38.0354H143.912V66.8766H139.602V38.0354Z" fill="#191919"/>
<path d="M84.7011 47.8534C79.2709 47.8534 74.8479 51.9806 74.8479 57.6643C74.8479 63.3128 79.2709 67.4752 84.7011 67.4752C90.1313 67.4752 94.5543 63.3128 94.5543 57.6643C94.5543 51.9735 90.1313 47.8534 84.7011 47.8534ZM84.7011 63.6086C81.7289 63.6086 79.1653 61.1576 79.1653 57.6643C79.1653 54.1357 81.7289 51.72 84.7011 51.72C87.6732 51.72 90.2369 54.1357 90.2369 57.6643C90.2369 61.1576 87.6732 63.6086 84.7011 63.6086Z" fill="#191919"/>
<path d="M59.1279 50.8607V55.0231H69.0867C68.7909 57.3614 68.0091 59.0728 66.8189 60.2631C65.368 61.7139 63.1001 63.3127 59.1279 63.3127C52.9934 63.3127 48.2042 58.3685 48.2042 52.234C48.2042 46.0996 52.9934 41.1624 59.1279 41.1624C62.4381 41.1624 64.8539 42.4654 66.6357 44.1346L69.5727 41.1976C67.0794 38.8171 63.7763 37 59.1279 37C50.7256 37 43.6685 43.8388 43.6685 52.2411C43.6685 60.6434 50.7326 67.4822 59.1279 67.4822C63.6636 67.4822 67.0794 65.9961 69.7558 63.2071C72.5096 60.4532 73.3618 56.5937 73.3618 53.4666C73.3618 52.5017 73.2843 51.6072 73.1364 50.8677H59.1279V50.8607Z" fill="#191919"/>
<path d="M155.73 63.6087C153.54 63.6087 151.976 62.6086 150.969 60.6365L164.09 55.2064L163.646 54.0936C162.829 51.9032 160.336 47.8464 155.244 47.8464C150.187 47.8464 145.989 51.8257 145.989 57.6573C145.989 63.1579 150.152 67.4683 155.73 67.4683C160.23 67.4683 162.829 64.7144 163.907 63.1227L160.561 60.8901C159.449 62.5311 157.927 63.6087 155.73 63.6087ZM155.399 51.6426C157.11 51.6426 158.561 52.4948 159.04 53.7273L150.272 57.3686C150.159 53.5724 153.201 51.6426 155.399 51.6426Z" fill="#191919"/>
<path d="M132.537 50.0437H132.389C131.425 48.8887 129.565 47.8534 127.22 47.8534C122.311 47.8534 117.817 52.1637 117.817 57.7065C117.817 63.2071 122.318 67.4822 127.22 67.4822C129.558 67.4822 131.418 66.4399 132.389 65.2496H132.537V66.6653C132.537 70.4192 130.53 72.4264 127.297 72.4264C124.656 72.4264 123.022 70.5319 122.353 68.9331L118.599 70.4967C119.677 73.0955 122.536 76.2931 127.297 76.2931C132.354 76.2931 136.629 73.3209 136.629 66.0736V48.445H132.537V50.0437ZM127.593 63.6086C124.621 63.6086 122.128 61.1154 122.128 57.6995C122.128 54.2414 124.621 51.7129 127.593 51.7129C130.53 51.7129 132.833 54.2414 132.833 57.6995C132.833 61.1224 130.53 63.6086 127.593 63.6086Z" fill="#191919"/>
<path d="M106.182 47.8534C100.752 47.8534 96.3291 51.9806 96.3291 57.6643C96.3291 63.3128 100.752 67.4752 106.182 67.4752C111.612 67.4752 116.035 63.3128 116.035 57.6643C116.035 51.9735 111.612 47.8534 106.182 47.8534ZM106.182 63.6086C103.21 63.6086 100.646 61.1576 100.646 57.6643C100.646 54.1357 103.21 51.72 106.182 51.72C109.154 51.72 111.718 54.1357 111.718 57.6643C111.725 61.1576 109.161 63.6086 106.182 63.6086Z" fill="#191919"/>
</svg>
