<svg width="208" height="112" viewBox="0 0 208 112" fill="none" xmlns="http://www.w3.org/2000/svg">
<path d="M38.9946 60.5614V59.1371H43.9846V60.9487C43.9808 61.1867 44.0279 61.4227 44.123 61.641C44.218 61.8593 44.3586 62.0546 44.5355 62.214C44.7124 62.3733 44.9213 62.4929 45.1482 62.5647C45.3752 62.6365 45.6149 62.6589 45.8512 62.6303C46.2549 62.6851 46.6644 62.5861 46.9986 62.3531C47.3328 62.1201 47.5672 61.77 47.6553 61.3722C47.7889 60.9165 47.7775 60.4306 47.6228 59.9816C46.657 57.5529 40.0578 56.4534 39.2195 52.6678C39.0488 51.8362 39.0382 50.9797 39.1883 50.1441C39.703 47.1043 42.3742 46.0049 45.69 46.0049C48.33 46.0049 51.9681 46.6196 51.9681 50.695V52.0219H47.333V50.8575C47.347 50.6279 47.3111 50.3981 47.2278 50.1838C47.1446 49.9694 47.0159 49.7757 46.8507 49.6158C46.6855 49.4559 46.4876 49.3336 46.2706 49.2575C46.0536 49.1813 45.8228 49.153 45.5938 49.1745C45.2029 49.1315 44.8101 49.2375 44.494 49.4715C44.1778 49.7054 43.9616 50.05 43.8884 50.4364C43.8363 50.7591 43.8474 51.0887 43.9209 51.4072C44.4669 53.5736 51.5184 54.7393 52.2917 58.6536C52.485 59.668 52.4956 60.7088 52.323 61.727C51.8719 64.8305 49.1033 65.9949 45.7562 65.9949C42.243 65.9949 38.9946 64.733 38.9946 60.5614ZM99.4544 60.4976V59.0733H104.381V60.8525C104.373 61.0883 104.416 61.3231 104.508 61.5407C104.599 61.7583 104.736 61.9536 104.91 62.1133C105.084 62.273 105.29 62.3932 105.515 62.4659C105.739 62.5385 105.977 62.5618 106.211 62.5341C106.611 62.5938 107.019 62.5003 107.353 62.2724C107.687 62.0445 107.923 61.699 108.014 61.3047C108.147 60.8597 108.136 60.3838 107.983 59.9454C107.048 57.5529 100.513 56.4472 99.6768 52.6678C99.5058 51.8472 99.4948 51.0013 99.6443 50.1765C100.163 47.1693 102.838 46.0699 106.086 46.0699C108.695 46.0699 112.299 46.717 112.299 50.7275V52.0219H107.697V50.8899C107.711 50.6633 107.677 50.4361 107.596 50.2238C107.515 50.0115 107.39 49.8191 107.228 49.6596C107.066 49.5001 106.872 49.3772 106.659 49.2994C106.445 49.2215 106.218 49.1904 105.991 49.2083C105.607 49.1574 105.219 49.2569 104.907 49.4861C104.595 49.7152 104.383 50.0562 104.317 50.4377C104.264 50.7602 104.275 51.0899 104.348 51.4084C104.863 53.5748 111.844 54.708 112.623 58.5886C112.816 59.5921 112.826 60.6223 112.654 61.6296C112.203 64.7355 109.467 65.8675 106.157 65.8675C102.675 65.87 99.4544 64.6043 99.4544 60.4976ZM117.097 61.1785C117.052 60.7699 117.042 60.3583 117.066 59.9479V46.5546H121.766V60.3665C121.76 60.6043 121.77 60.8422 121.797 61.0786C121.902 61.4681 122.132 61.8121 122.452 62.0575C122.773 62.3028 123.165 62.4358 123.568 62.4358C123.971 62.4358 124.363 62.3028 124.684 62.0575C125.004 61.8121 125.234 61.4681 125.339 61.0786C125.367 60.8423 125.378 60.6043 125.371 60.3665V46.5546H130.074V59.9454C130.074 60.3015 130.042 60.9811 130.042 61.176C129.721 64.6743 126.983 65.7987 123.571 65.7987C120.159 65.7987 117.419 64.6681 117.097 61.176V61.1785ZM155.795 60.9836C155.747 60.5736 155.725 60.1608 155.73 59.748V51.8919C155.73 51.5684 155.761 50.9861 155.794 50.6613C156.212 47.1693 159.013 46.0699 162.329 46.0699C165.614 46.0699 168.51 47.1693 168.833 50.6626C168.872 51.0716 168.882 51.4827 168.865 51.8932V52.5016H164.165V51.4721C164.165 51.2333 164.144 50.9949 164.101 50.76C163.977 50.3656 163.731 50.021 163.398 49.7763C163.065 49.5316 162.663 49.3997 162.249 49.3997C161.836 49.3997 161.434 49.5316 161.1 49.7763C160.767 50.021 160.521 50.3656 160.398 50.76C160.343 51.0482 160.322 51.3416 160.334 51.6346V60.1728C160.329 60.4106 160.339 60.6486 160.366 60.8849C160.478 61.3085 160.737 61.6783 161.097 61.9279C161.456 62.1776 161.893 62.2906 162.329 62.2468C162.757 62.2923 163.187 62.1792 163.537 61.9289C163.887 61.6785 164.133 61.3084 164.228 60.8887C164.272 60.6539 164.283 60.4143 164.261 60.1765V57.4554H162.362V54.738H168.93V59.748C168.934 60.1588 168.913 60.5694 168.865 60.9774C168.544 64.3732 165.616 65.5701 162.329 65.5701C159.042 65.5701 156.116 64.3769 155.795 60.9811V60.9836ZM90.2802 65.2178L90.1553 47.9452L86.9319 65.2178H82.2318L79.0434 47.9452L78.9184 65.2178H74.2795L74.6655 46.5871H82.2318L84.5818 61.1436L86.9319 46.5871H94.4969L94.9154 65.2178H90.2802ZM65.5551 65.2178L63.0439 47.9452L60.4676 65.2178H55.4464L58.8597 46.5871H67.1343L70.5476 65.2178H65.5551ZM144.237 65.0241L139.569 49.5306L139.827 65.0229H135.254V46.5871H142.143L146.516 61.5958L146.265 46.5871H150.869V65.0254L144.237 65.0241Z" fill="#191919"/>
</svg>
