<svg width="208" height="112" viewBox="0 0 208 112" fill="none" xmlns="http://www.w3.org/2000/svg">
<path d="M111.999 46.5272C109.28 46.5272 106.552 46.8703 104.832 48.5647C103.112 50.2591 102.443 52.8007 102.443 55.9268C102.443 59.053 103.053 61.548 104.747 63.2424C106.442 64.9367 109.263 65.3603 111.982 65.3603C114.702 65.3603 117.43 64.996 119.15 63.3017C120.87 61.6073 121.552 59.0657 121.552 55.9268C121.552 52.788 120.946 50.3184 119.226 48.6283C117.506 46.9381 114.723 46.5272 111.999 46.5272ZM116.129 60.4297C115.168 61.5225 113.431 61.7005 111.999 61.7005C110.568 61.7005 108.835 61.5098 107.874 60.4297C106.912 59.3495 106.865 57.8288 106.865 55.9311C106.865 54.0333 106.929 52.5635 107.886 51.4664C108.844 50.3692 110.385 50.1956 112.012 50.1956C113.639 50.1956 115.181 50.3862 116.138 51.4664C117.095 52.5465 117.159 54.0291 117.159 55.9311C117.159 57.833 117.087 59.3325 116.129 60.4297ZM74.2908 46.8619H70.4361C70.3973 46.8613 70.3589 46.8684 70.3229 46.8829C70.287 46.8973 70.2542 46.9187 70.2266 46.9459C70.199 46.9731 70.1771 47.0056 70.1622 47.0413C70.1472 47.077 70.1395 47.1154 70.1395 47.1541V64.7292C70.1395 64.7679 70.1472 64.8063 70.1622 64.842C70.1771 64.8778 70.199 64.9102 70.2266 64.9374C70.2542 64.9646 70.287 64.986 70.3229 65.0004C70.3589 65.0149 70.3973 65.022 70.4361 65.0215H74.2908C74.3687 65.0215 74.4435 64.9908 74.499 64.9361C74.5545 64.8814 74.5862 64.8071 74.5873 64.7292V47.1541C74.5862 47.0762 74.5545 47.0019 74.499 46.9472C74.4435 46.8925 74.3687 46.8618 74.2908 46.8619ZM58.0967 55.7913L64.9293 47.3193C64.9633 47.2781 64.9848 47.2281 64.9912 47.175C64.9976 47.122 64.9887 47.0682 64.9656 47.0201C64.9424 46.972 64.9059 46.9315 64.8604 46.9034C64.815 46.8754 64.7624 46.861 64.709 46.8619H59.7911C59.7329 46.862 59.6756 46.8754 59.6235 46.9011C59.5714 46.9268 59.5258 46.9641 59.4903 47.0101L54.9663 53.0082L50.5566 47.0143C50.5216 46.9676 50.4762 46.9295 50.424 46.903C50.3719 46.8766 50.3144 46.8625 50.2559 46.8619H45.3083C45.2549 46.861 45.2023 46.8754 45.1569 46.9034C45.1114 46.9315 45.0749 46.972 45.0517 47.0201C45.0286 47.0682 45.0197 47.122 45.0261 47.175C45.0325 47.2281 45.054 47.2781 45.088 47.3193L52.0138 55.948L45.0795 64.5682C45.0468 64.6095 45.0264 64.6591 45.0207 64.7115C45.015 64.7638 45.0241 64.8167 45.0472 64.8641C45.0702 64.9114 45.1061 64.9513 45.1508 64.9792C45.1955 65.007 45.2471 65.0217 45.2998 65.0215H50.2474C50.307 65.021 50.3656 65.0065 50.4185 64.9793C50.4715 64.9521 50.5173 64.9129 50.5524 64.8647L55.1866 58.892L59.5454 64.869C59.5811 64.9161 59.6272 64.9543 59.6801 64.9808C59.733 65.0072 59.7912 65.0211 59.8504 65.0215H64.7344C64.7871 65.0217 64.8387 65.007 64.8834 64.9792C64.9281 64.9513 64.9641 64.9114 64.9871 64.8641C65.0101 64.8167 65.0193 64.7638 65.0135 64.7115C65.0078 64.6591 64.9874 64.6095 64.9547 64.5682L58.0967 55.7913ZM151.906 48.1962C150.339 46.739 147.819 46.5611 145.781 46.5611C143.146 46.5611 141.469 47.1202 140.452 47.6455H139.745C138.75 47.0948 136.996 46.5611 134.238 46.5611C132.197 46.5611 129.697 46.7094 128.155 48.0056C126.885 49.073 126.584 50.5005 126.584 53.4234V64.7207C126.584 64.7596 126.593 64.7981 126.608 64.8339C126.623 64.8696 126.646 64.902 126.674 64.9291C126.702 64.9563 126.735 64.9777 126.771 64.992C126.807 65.0064 126.846 65.0135 126.885 65.013H130.735C130.774 65.0135 130.813 65.0064 130.849 64.992C130.885 64.9777 130.918 64.9563 130.946 64.9291C130.974 64.902 130.996 64.8696 131.012 64.8339C131.027 64.7981 131.035 64.7596 131.036 64.7207V64.6826V55.4227C131.036 53.7284 130.972 52.0001 131.332 51.3477C131.616 50.8394 132.057 50.276 134.149 50.276C136.644 50.276 137.233 50.4497 137.627 51.5468C137.731 51.8991 137.785 52.2641 137.788 52.6312V64.7207C137.788 64.7594 137.796 64.7978 137.811 64.8335C137.826 64.8693 137.848 64.9017 137.875 64.9289C137.903 64.9561 137.935 64.9775 137.971 64.992C138.007 65.0064 138.046 65.0135 138.085 65.013H141.935C141.974 65.0135 142.013 65.0064 142.049 64.992C142.085 64.9777 142.118 64.9563 142.146 64.9291C142.174 64.902 142.196 64.8696 142.212 64.8339C142.227 64.7981 142.235 64.7596 142.236 64.7207V52.6397C142.239 52.2725 142.293 51.9076 142.397 51.5553C142.791 50.4497 143.375 50.2845 145.87 50.2845C147.963 50.2845 148.412 50.8479 148.687 51.3562C149.051 52.0086 148.984 53.7538 148.984 55.4312V64.7504C148.984 64.7893 148.992 64.8277 149.008 64.8635C149.023 64.8993 149.046 64.9317 149.074 64.9588C149.101 64.9859 149.134 65.0073 149.171 65.0217C149.207 65.0361 149.245 65.0432 149.284 65.0426H153.135C153.213 65.0426 153.288 65.012 153.343 64.9573C153.399 64.9026 153.43 64.8283 153.431 64.7504V54.1604C153.431 51.0766 153.334 49.522 151.906 48.1962ZM96.6228 49.2721C94.8437 46.8195 91.6159 46.0782 88.2864 46.2561C86.127 46.3405 83.9893 46.7196 81.9325 47.3829C81.5597 47.5227 81.6063 47.8446 81.6021 48.0395C81.6021 48.6876 81.5385 50.365 81.5428 51.047C81.5428 51.3477 81.9113 51.4706 82.2205 51.3774C83.9479 50.7503 85.7416 50.3239 87.5663 50.1066C89.5445 49.9456 92.2259 50.1066 92.9714 51.2291C93.323 51.7629 93.3399 52.5804 93.395 53.4149C91.7761 53.2395 90.1466 53.1829 88.5194 53.2455C87.1004 53.309 84.4148 53.4318 82.8009 54.279C81.5046 54.9695 80.7422 55.5964 80.3355 56.7656C80.0232 57.7296 79.9178 58.7486 80.0263 59.7561C80.2635 61.8741 80.9921 62.9035 81.9791 63.6321C83.5337 64.7842 85.4992 65.39 89.5572 65.301C94.9581 65.1824 96.3771 63.4372 97.093 62.1961C98.313 60.0781 98.1012 56.7528 98.0631 54.7069C98.0504 53.8554 97.9233 51.0682 96.6228 49.2721ZM93.1027 60.3577C92.5944 61.4294 90.7772 61.5946 89.714 61.6284C87.7231 61.7174 86.2574 61.6284 85.3085 61.171C84.977 60.9947 84.6969 60.7353 84.4957 60.4182C84.2944 60.1012 84.179 59.7373 84.1606 59.3622C84.1267 58.6717 84.1394 58.3202 84.4486 57.9093C85.1518 56.9985 86.9902 56.8037 88.8583 56.7317C90.4073 56.7132 91.9558 56.8023 93.4924 56.9985C93.4797 58.371 93.3908 59.7519 93.1027 60.3577ZM163.699 46.8619H159.849C159.81 46.8613 159.771 46.8684 159.735 46.8828C159.699 46.8972 159.666 46.9186 159.638 46.9457C159.61 46.9728 159.588 47.0052 159.572 47.041C159.557 47.0767 159.549 47.1152 159.548 47.1541V64.7292C159.549 64.7681 159.557 64.8066 159.572 64.8423C159.588 64.8781 159.61 64.9105 159.638 64.9376C159.666 64.9648 159.699 64.9861 159.735 65.0005C159.771 65.0149 159.81 65.022 159.849 65.0215H163.699C163.738 65.022 163.777 65.0149 163.813 65.0005C163.849 64.9861 163.882 64.9648 163.91 64.9376C163.938 64.9105 163.961 64.8781 163.976 64.8423C163.991 64.8066 164 64.7681 164 64.7292V47.1541C164 47.1152 163.991 47.0767 163.976 47.041C163.961 47.0052 163.938 46.9728 163.91 46.9457C163.882 46.9186 163.849 46.8972 163.813 46.8828C163.777 46.8684 163.738 46.8613 163.699 46.8619Z" fill="#191919"/>
</svg>
