<svg width="240" height="48" viewBox="0 0 240 48" fill="none" xmlns="http://www.w3.org/2000/svg">
<path d="M43.7514 22.0488C44.4485 23.2563 44.4485 24.7439 43.7514 25.9513L34.785 41.4816C34.0878 42.689 32.7996 43.4328 31.4053 43.4328L13.4725 43.4328C12.0783 43.4328 10.79 42.689 10.0929 41.4816L1.12642 25.9513C0.429316 24.7439 0.429317 23.2563 1.12642 22.0488L10.0929 6.51851C10.79 5.31109 12.0783 4.56729 13.4725 4.56729L31.4053 4.56729C32.7996 4.56729 34.0879 5.3111 34.785 6.51851L43.7514 22.0488Z" fill="#0027A1"/>
<path d="M49.1176 22.0487C49.8147 23.2561 49.8147 24.7437 49.1176 25.9511L43.078 36.412C42.3809 37.6195 41.0926 38.3633 39.6984 38.3633L27.6192 38.3633C26.225 38.3633 24.9367 37.6195 24.2396 36.412L18.1999 25.9511C17.5028 24.7437 17.5028 23.2561 18.1999 22.0487L24.2396 11.5878C24.9367 10.3804 26.225 9.63657 27.6192 9.63657L39.6984 9.63657C41.0926 9.63657 42.3809 10.3804 43.078 11.5878L49.1176 22.0487Z" fill="#0080D8"/>
<path d="M54.9711 22.0488C55.6682 23.2562 55.6682 24.7438 54.9711 25.9513L51.6144 31.7652C50.9173 32.9726 49.629 33.7164 48.2348 33.7164L41.5215 33.7164C40.1273 33.7164 38.839 32.9726 38.1419 31.7652L34.7852 25.9512C34.0881 24.7438 34.0881 23.2562 34.7852 22.0488L38.1419 16.2349C38.839 15.0274 40.1273 14.2836 41.5215 14.2836L48.2348 14.2836C49.629 14.2836 50.9173 15.0274 51.6144 16.2349L54.9711 22.0488Z" fill="#00D8FF"/>
<path d="M76.9855 36.9215C75.2059 36.9215 73.6138 36.6171 72.2089 36.0083C70.8274 35.3995 69.7269 34.5098 68.9074 33.339C68.1113 32.1683 67.7016 30.7517 67.6781 29.0893H72.7006C72.724 29.8151 72.9113 30.4707 73.2625 31.0561C73.6138 31.6415 74.0938 32.1098 74.7025 32.461C75.3347 32.7888 76.084 32.9527 76.9503 32.9527C77.6996 32.9527 78.3435 32.8356 78.882 32.6015C79.444 32.3439 79.8772 31.9927 80.1816 31.5478C80.486 31.1029 80.6381 30.5761 80.6381 29.9673C80.6381 29.2649 80.4625 28.6795 80.1113 28.2112C79.7835 27.7429 79.3152 27.3449 78.7064 27.0171C78.1211 26.6893 77.4303 26.3966 76.6342 26.139C75.8616 25.858 75.042 25.5654 74.1757 25.261C72.2323 24.6288 70.7455 23.7859 69.7152 22.7322C68.7084 21.6785 68.205 20.2854 68.205 18.5527C68.205 17.0776 68.5562 15.8132 69.2586 14.7595C69.9845 13.7059 70.9796 12.898 72.244 12.3361C73.5084 11.7741 74.9484 11.4932 76.564 11.4932C78.2264 11.4932 79.6781 11.7859 80.9191 12.3712C82.1835 12.9332 83.1786 13.7527 83.9045 14.8298C84.6538 15.9068 85.0401 17.1712 85.0635 18.6229H80.006C79.9825 18.0844 79.8186 17.581 79.5142 17.1127C79.2333 16.621 78.8352 16.2346 78.3201 15.9537C77.805 15.6493 77.1962 15.4971 76.4938 15.4971C75.885 15.4737 75.323 15.5673 74.8079 15.778C74.3162 15.9888 73.9181 16.3049 73.6138 16.7263C73.3328 17.1244 73.1923 17.6278 73.1923 18.2366C73.1923 18.8219 73.3328 19.3137 73.6138 19.7117C73.9181 20.1098 74.3279 20.461 74.843 20.7654C75.3581 21.0463 75.9669 21.3156 76.6694 21.5732C77.3718 21.8073 78.1328 22.0532 78.9523 22.3107C80.1699 22.7322 81.2938 23.2356 82.324 23.821C83.3542 24.3829 84.1738 25.1205 84.7825 26.0337C85.3913 26.9468 85.6957 28.1527 85.6957 29.6512C85.6957 30.939 85.3562 32.1332 84.6772 33.2337C83.9981 34.3341 83.0147 35.2239 81.7269 35.9029C80.4625 36.582 78.882 36.9215 76.9855 36.9215ZM89.6124 36.5V18.7985H93.7919L94.1782 21.1517C94.7402 20.3088 95.4777 19.6415 96.3909 19.1498C97.3275 18.6346 98.3928 18.3771 99.587 18.3771C100.477 18.3771 101.273 18.4941 101.975 18.7283C102.678 18.9624 103.298 19.3019 103.837 19.7468C104.399 20.1917 104.855 20.7537 105.207 21.4327C105.862 20.4727 106.717 19.7234 107.77 19.1849C108.824 18.6463 109.971 18.3771 111.212 18.3771C112.758 18.3771 114.046 18.6932 115.076 19.3254C116.106 19.9341 116.879 20.8239 117.394 21.9946C117.932 23.1654 118.202 24.6054 118.202 26.3146V36.5H113.495V26.7361C113.495 25.3312 113.214 24.2541 112.652 23.5049C112.114 22.7556 111.271 22.381 110.124 22.381C109.374 22.381 108.707 22.5683 108.122 22.9429C107.536 23.3176 107.08 23.8561 106.752 24.5585C106.447 25.261 106.295 26.1039 106.295 27.0873V36.5H101.554V26.7361C101.554 25.3312 101.273 24.2541 100.711 23.5049C100.149 22.7556 99.2826 22.381 98.1119 22.381C97.386 22.381 96.7304 22.5683 96.145 22.9429C95.5831 23.3176 95.1382 23.8561 94.8104 24.5585C94.506 25.261 94.3538 26.1039 94.3538 27.0873V36.5H89.6124ZM128.647 36.9215C127.172 36.9215 125.954 36.6873 124.994 36.219C124.034 35.7273 123.32 35.0834 122.852 34.2873C122.407 33.4678 122.185 32.5663 122.185 31.5829C122.185 30.5059 122.454 29.5576 122.992 28.738C123.554 27.9185 124.386 27.2746 125.486 26.8063C126.61 26.338 128.015 26.1039 129.701 26.1039H134.091C134.091 25.2376 133.974 24.5234 133.74 23.9615C133.506 23.3761 133.143 22.9429 132.651 22.662C132.159 22.381 131.504 22.2405 130.684 22.2405C129.794 22.2405 129.033 22.4395 128.401 22.8376C127.792 23.2122 127.418 23.7976 127.277 24.5937H122.676C122.793 23.3293 123.203 22.2405 123.906 21.3273C124.632 20.3907 125.58 19.6649 126.751 19.1498C127.945 18.6346 129.268 18.3771 130.719 18.3771C132.382 18.3771 133.822 18.658 135.039 19.22C136.257 19.782 137.193 20.5898 137.849 21.6434C138.505 22.6971 138.832 23.9966 138.832 25.542V36.5H134.829L134.302 33.7956C134.044 34.2639 133.74 34.6854 133.389 35.06C133.037 35.4346 132.628 35.7624 132.159 36.0434C131.691 36.3244 131.164 36.5351 130.579 36.6756C129.993 36.8395 129.35 36.9215 128.647 36.9215ZM129.771 33.2688C130.38 33.2688 130.918 33.1634 131.387 32.9527C131.878 32.7185 132.3 32.4141 132.651 32.0395C133.002 31.6415 133.272 31.1966 133.459 30.7049C133.67 30.1898 133.81 29.6395 133.88 29.0541V29.019H130.263C129.537 29.019 128.94 29.1127 128.472 29.3C128.027 29.4639 127.699 29.7098 127.488 30.0376C127.277 30.3654 127.172 30.74 127.172 31.1615C127.172 31.6298 127.277 32.0161 127.488 32.3205C127.699 32.6249 128.003 32.859 128.401 33.0229C128.799 33.1868 129.256 33.2688 129.771 33.2688ZM143.256 36.5V18.7985H147.47L147.927 22.0649C148.348 21.2922 148.875 20.6366 149.507 20.098C150.163 19.5595 150.901 19.138 151.72 18.8337C152.563 18.5293 153.488 18.3771 154.495 18.3771V23.3995H152.879C152.177 23.3995 151.521 23.4815 150.912 23.6454C150.327 23.8093 149.812 24.0785 149.367 24.4532C148.922 24.8044 148.582 25.2961 148.348 25.9283C148.114 26.5605 147.997 27.3566 147.997 28.3166V36.5H143.256ZM165.6 36.5C164.359 36.5 163.27 36.3127 162.333 35.938C161.42 35.54 160.706 34.8961 160.191 34.0063C159.676 33.0932 159.418 31.8522 159.418 30.2834V22.7673H156.398V18.7985H159.418L159.945 13.9868H164.16V18.7985H168.831V22.7673H164.16V30.3537C164.16 31.1498 164.335 31.7 164.686 32.0044C165.038 32.3088 165.635 32.461 166.478 32.461H168.796V36.5H165.6ZM188.415 36.5V11.9146H193.157V36.5H188.415ZM172.927 36.5V11.9146H177.668V36.5H172.927ZM177.001 25.858V22.0298H189.223V25.858H177.001ZM204.497 36.9215C203.068 36.9215 201.839 36.6288 200.809 36.0434C199.802 35.4346 199.029 34.5566 198.491 33.4093C197.952 32.2385 197.683 30.7985 197.683 29.0893V18.7985H202.424V28.5976C202.424 30.0259 202.717 31.1029 203.302 31.8288C203.911 32.5546 204.836 32.9176 206.077 32.9176C206.873 32.9176 207.576 32.742 208.184 32.3907C208.793 32.0161 209.273 31.4893 209.624 30.8102C209.999 30.1078 210.186 29.2532 210.186 28.2463V18.7985H214.893V36.5H210.748L210.362 33.62C209.847 34.6268 209.086 35.4346 208.079 36.0434C207.072 36.6288 205.878 36.9215 204.497 36.9215ZM230.002 36.9215C229.089 36.9215 228.27 36.8044 227.544 36.5702C226.842 36.3361 226.209 36.02 225.647 35.622C225.109 35.2005 224.652 34.7322 224.278 34.2171L223.751 36.5H219.536V11.2122H224.278V21.2571C224.84 20.4376 225.577 19.7585 226.49 19.22C227.427 18.658 228.586 18.3771 229.967 18.3771C231.606 18.3771 233.058 18.7868 234.322 19.6063C235.61 20.4024 236.617 21.5029 237.343 22.9078C238.092 24.2893 238.467 25.8815 238.467 27.6844C238.467 29.4405 238.092 31.021 237.343 32.4259C236.617 33.8307 235.622 34.9312 234.358 35.7273C233.093 36.5234 231.642 36.9215 230.002 36.9215ZM228.879 32.7771C229.815 32.7771 230.635 32.5663 231.337 32.1449C232.063 31.7 232.625 31.1029 233.023 30.3537C233.421 29.581 233.62 28.6912 233.62 27.6844C233.62 26.6776 233.421 25.7878 233.023 25.0151C232.625 24.219 232.063 23.6102 231.337 23.1888C230.635 22.7439 229.815 22.5215 228.879 22.5215C227.965 22.5215 227.146 22.7439 226.42 23.1888C225.718 23.6102 225.156 24.2073 224.734 24.98C224.336 25.7527 224.137 26.6424 224.137 27.6493C224.137 28.6561 224.336 29.5576 224.734 30.3537C225.156 31.1263 225.718 31.7234 226.42 32.1449C227.146 32.5663 227.965 32.7771 228.879 32.7771Z" fill="#0027A1"/>
</svg>
